<svg width="41" height="35" viewBox="0 0 41 35" fill="none" xmlns="http://www.w3.org/2000/svg">
<path d="M36.6916 20.9838C36.5082 20.9971 36.3477 20.8538 36.3378 20.6671L35.722 10.8804C35.7089 10.6938 35.8497 10.5304 36.0332 10.5204C37.9692 10.3938 39.6366 11.8871 39.7611 13.8571L39.9708 17.1938C40.0953 19.1571 38.6277 20.8571 36.6916 20.9838Z" fill="#F37B21"/>
<path d="M36.672 21.05C36.4623 21.05 36.2854 20.8833 36.2723 20.6666L35.6565 10.88C35.6434 10.6566 35.8104 10.46 36.0299 10.4466C37.9987 10.32 39.7022 11.8433 39.8267 13.8466L40.0363 17.1833C40.0986 18.1533 39.7841 19.09 39.1518 19.82C38.5196 20.55 37.6482 20.9866 36.6949 21.0466C36.6884 21.05 36.6786 21.05 36.672 21.05ZM36.2625 10.5733C36.1872 10.5733 36.1118 10.5766 36.0365 10.58C35.9644 10.5833 35.8989 10.6166 35.853 10.6733C35.8072 10.7266 35.781 10.7966 35.7875 10.87L36.4034 20.6566C36.4132 20.8066 36.541 20.9233 36.6884 20.91C37.6056 20.85 38.4475 20.43 39.0536 19.7266C39.6629 19.0233 39.9642 18.1233 39.9053 17.1866L39.6956 13.85C39.6367 12.9166 39.2239 12.06 38.5327 11.4433C37.9005 10.88 37.1011 10.5733 36.2625 10.5733Z" fill="#F37B21"/>
<g opacity="0.35">
<path opacity="0.35" d="M39.8725 15.6233L39.9707 17.19C40.0952 19.1566 38.6276 20.8566 36.6916 20.9833C36.5081 20.9966 36.3476 20.8533 36.3378 20.6633L36.174 18.06C36.233 18.1766 36.3542 18.25 36.4918 18.2433L36.7211 18.2266C38.2476 18.13 39.4859 17.0466 39.8725 15.6233Z" fill="#371A45"/>
</g>
<path d="M4.28303 12.58C4.46648 12.5667 4.62699 12.71 4.63682 12.8967L5.25268 22.6834C5.26579 22.87 5.12492 23.0334 4.94148 23.0434C3.00544 23.17 1.33803 21.6767 1.21355 19.7067L1.00389 16.3734C0.879407 14.4034 2.34699 12.7067 4.28303 12.58Z" fill="#F37B21"/>
<path d="M4.71251 23.1233C3.8444 23.1233 3.01234 22.8067 2.35389 22.2167C1.63647 21.5733 1.20734 20.6867 1.14837 19.7167L0.938715 16.38C0.876474 15.41 1.19096 14.4733 1.8232 13.7433C2.45544 13.0133 3.32682 12.5767 4.28009 12.5167C4.50285 12.5067 4.69285 12.6733 4.70596 12.8967L5.32182 22.6833C5.32837 22.7933 5.29234 22.8967 5.22354 22.98C5.15147 23.0633 5.05647 23.11 4.94837 23.1167C4.86647 23.12 4.79113 23.1233 4.71251 23.1233ZM4.28665 12.6467C3.3694 12.7067 2.52751 13.1267 1.92147 13.83C1.31216 14.5333 1.01078 15.4333 1.06975 16.37L1.2794 19.7067C1.33837 20.64 1.75113 21.4967 2.44234 22.1133C3.13354 22.73 4.0213 23.04 4.93854 22.98C5.01061 22.9767 5.07613 22.9433 5.12199 22.8867C5.16785 22.8333 5.19406 22.7633 5.18751 22.69L4.57165 12.9033C4.56182 12.7533 4.43734 12.6367 4.28665 12.6467Z" fill="#F37B21"/>
<g opacity="0.35">
<path opacity="0.35" d="M5.08265 19.97L5.25299 22.6867C5.2661 22.8733 5.12524 23.0367 4.93851 23.0467C3.92299 23.1133 2.97955 22.7333 2.29489 22.07C1.67575 21.4733 1.26955 20.6433 1.21058 19.71L1.12213 18.3033C1.74782 19.5 3.02541 20.28 4.44386 20.19L4.79437 20.1667C4.92868 20.16 5.03351 20.08 5.08265 19.97Z" fill="#371A45"/>
</g>
<path d="M20.5349 34.2371C29.8071 34.2371 37.3237 26.5886 37.3237 17.1538C37.3237 7.7189 29.8071 0.0704346 20.5349 0.0704346C11.2628 0.0704346 3.74615 7.7189 3.74615 17.1538C3.74615 26.5886 11.2628 34.2371 20.5349 34.2371Z" fill="#F37B21"/>
<path d="M20.5384 34.3033C20.4958 34.3033 20.4565 34.3033 20.4172 34.3033C11.1236 34.2367 3.61533 26.4867 3.68085 17.03C3.74636 7.61333 11.2972 0 20.5352 0C20.5777 0 20.6171 0 20.6564 0C25.1574 0.0333333 29.38 1.84667 32.5412 5.11C35.7024 8.37333 37.4255 12.6933 37.3927 17.2733C37.3239 26.69 29.7764 34.3033 20.5384 34.3033ZM20.5319 0.136667C16.1127 0.136667 11.9491 1.87333 8.79774 5.03333C5.61688 8.22333 3.84791 12.4833 3.81516 17.0267C3.7824 21.57 5.4924 25.8567 8.6274 29.0933C11.7624 32.33 15.9489 34.13 20.4139 34.1633C24.8757 34.1933 29.0917 32.4567 32.2726 29.2667C35.4534 26.0767 37.2224 21.8167 37.2551 17.2733C37.2879 12.73 35.5779 8.44333 32.4429 5.20667C29.3079 1.97 25.1214 0.17 20.6564 0.136667C20.6138 0.136667 20.5712 0.136667 20.5319 0.136667Z" fill="#F37B21"/>
<path d="M36.8586 17.33C36.8848 20.6 35.866 23.6467 34.1003 26.1733C32.7769 28.0667 27.3029 31.41 20.5153 31.5267C14.2191 31.6367 8.46345 28.2667 7.11052 26.3933C5.30552 23.8967 4.24086 20.8667 4.21466 17.5967C4.14586 8.93999 11.4248 5.29332 20.44 5.21999C29.4552 5.14666 36.7931 8.67333 36.8586 17.33Z" fill="#08171C"/>
<path d="M20.211 31.9033C13.8329 31.9033 8.20501 28.54 6.81277 26.6133C4.89639 23.96 3.87105 20.8433 3.84484 17.5967C3.81208 13.3733 5.45002 10.1 8.71605 7.87667C11.5693 5.93 15.6248 4.88334 20.4404 4.84334C25.2559 4.80334 29.3245 5.78667 32.2105 7.68667C35.5093 9.86 37.1997 13.1033 37.2324 17.3267C37.2586 20.57 36.2792 23.7067 34.4054 26.39C33.1048 28.25 27.6997 31.7767 20.5223 31.9C20.4174 31.9033 20.3126 31.9033 20.211 31.9033ZM20.686 5.59334C20.6042 5.59334 20.5223 5.59334 20.4436 5.59334C15.6478 5.63334 4.50001 6.88 4.58519 17.59C4.60812 20.6767 5.5876 23.64 7.40898 26.1667C8.68329 27.9333 14.1704 31.15 20.2176 31.15C20.3159 31.15 20.4109 31.15 20.5092 31.1467C27.336 31.03 32.6135 27.65 33.7993 25.9533C35.5847 23.4 36.515 20.4167 36.4888 17.3333C36.4069 6.8 25.6064 5.59334 20.686 5.59334Z" fill="#08171C"/>
<path d="M30.7784 11.8134C29.3075 10.5 27.6958 10.4934 25.989 10.82C26.0316 10.66 26.0611 10.55 26.0546 10.5734C25.0751 10.9467 24.0661 11.3734 23.0309 11.7C22.6313 11.8267 22.1628 11.7167 21.7239 11.72C21.5011 11.7234 21.2784 11.73 21.0556 11.7467C19.9123 11.83 18.7527 12.0767 17.629 11.9634C16.4727 11.8467 15.3523 11.3867 14.209 10.92C14.304 11.0467 14.399 11.1767 14.5497 11.3734C12.807 11.2834 11.1723 11.35 9.93077 12.7567C9.74732 11.8634 10.1634 10.81 11.0315 10.09C12.9478 8.50005 14.9461 8.78671 17.0066 9.85338C16.8494 9.68005 16.6921 9.50671 16.5349 9.33338C16.584 9.25005 16.5808 9.25671 16.6299 9.17005C17.2097 9.33338 17.8223 9.43005 18.3661 9.68005C19.6699 10.28 20.882 10.1834 22.1039 9.45338C22.5854 9.16671 23.1489 9.01671 23.673 8.80671C23.7287 8.88338 23.7221 8.87338 23.7778 8.95005L23.2504 9.64338C25.1013 8.36338 27.0209 7.77338 29.1044 9.03671C30.0675 9.63005 30.6571 10.4967 30.7784 11.8134Z" fill="#F37B21"/>
<path d="M24.1121 14.2734L25.0851 14.2234C24.5282 13.8801 23.9811 13.5434 23.4832 13.2367C24.6461 13.3467 25.8188 13.4534 26.9556 13.5601C26.9654 13.5467 26.8737 13.6767 26.7787 13.8034C26.8311 13.8801 26.9359 13.9001 27.0113 13.8467C27.5157 13.4834 28.0235 13.1167 28.5083 12.7667C28.7245 13.5034 28.5149 14.1367 27.863 14.5734C26.8999 15.2201 25.1145 15.0867 24.1121 14.2734Z" fill="#F37B21"/>
<path d="M12.1651 13.5801C12.7645 13.9367 13.3313 14.2767 13.9013 14.6167C13.9635 14.5267 13.9504 14.4034 13.8718 14.3267C13.8063 14.2601 13.7539 14.2134 13.7473 14.2034C14.8382 14.0067 15.9978 13.8001 17.0821 13.6034C16.9839 13.6967 16.7808 13.9201 16.5482 14.1034C16.2959 14.3001 16.0175 14.4634 15.5949 14.7434C16.0863 14.6867 16.3975 14.6501 16.7283 14.6101C16.024 15.5167 13.957 15.8467 13.0266 15.3467C12.3256 14.9634 12.0209 14.3601 12.1651 13.5801Z" fill="#F37B21"/>
<path d="M21.6323 24.21C21.6323 24.21 25.7861 23.2233 28.1874 21.1467C27.9122 20.4767 27.4601 19.8033 27.5158 19.9733C26.9884 18.61 26.3987 18.32 26.1006 18.2767C25.606 18.83 25.1572 19.33 24.7084 19.83C24.6068 19.7467 24.6494 19.78 24.5479 19.6967C24.6101 19.6067 24.6756 19.52 24.7379 19.43C25.8189 17.91 25.5306 16.2767 23.9844 15.26C23.457 14.9133 22.9132 14.5867 22.3563 14.2833C21.7142 13.9333 21.0886 14.1733 20.8101 14.8533C20.6955 15.13 20.6136 15.42 20.4661 15.8533C20.3122 15.5133 20.2172 15.3067 20.1255 15.1C19.7192 14.1867 19.087 14.01 18.2779 14.5933C17.8586 14.8967 17.436 15.1933 17.0298 15.51C15.5163 16.6867 15.323 18.3433 16.5187 19.8633C16.6596 20.0433 16.8103 20.22 16.9577 20.4C16.8987 20.4667 16.9151 20.4467 16.8594 20.51C16.3549 20.1533 15.8537 19.7933 15.3296 19.42C14.3567 20.8767 13.8751 22.4433 13.8227 24.1233L13.9537 24.2267C13.957 24.23 17.7275 25.35 21.6323 24.21ZM24.0073 16.98C22.6184 18.6233 21.8584 18.78 21.0755 17.5667C22.0811 17.5133 22.8444 16.5267 24.0073 16.98ZM20.0108 17.62C19.3917 18.92 18.5072 18.8167 17.0756 17.3233C18.1501 16.7467 19.0117 17.6667 20.0108 17.62Z" fill="#F37B21"/>
<path d="M27.6304 23.26C25.3209 23.97 23.5912 24.3234 22.1466 24.53C20.1385 25.0067 17.888 25.3467 15.5686 25.35C15.5064 25.3667 15.4409 25.38 15.3754 25.3967C14.5138 25.65 14.7071 25.51 14.088 25.8667L17.5767 26.1C17.6816 26.1067 17.7012 26.2534 17.6062 26.29C17.0559 26.5067 16.5612 26.7034 16.0076 26.9234C17.0493 28.1334 18.1631 28.9567 19.5914 29.2267C21.5209 29.5934 23.375 29.2534 25.1374 28.4567C26.0973 28.0234 27.1783 26.8334 27.5747 25.8467C28.0955 24.5467 28.8981 22.87 27.6304 23.26Z" fill="#F37B21"/>
</svg>
