<svg width="120" height="103" viewBox="0 0 120 103" fill="none" xmlns="http://www.w3.org/2000/svg">
<path d="M109.164 62.9498C108.604 62.9898 108.114 62.5598 108.084 61.9998L106.204 32.6398C106.164 32.0798 106.594 31.5898 107.154 31.5598C113.064 31.1798 118.154 35.6598 118.534 41.5698L119.174 51.5798C119.554 57.4698 115.074 62.5698 109.164 62.9498Z" fill="#F37B21"/>
<path d="M109.104 63.15C108.464 63.15 107.924 62.6499 107.884 61.9999L106.004 32.6399C105.964 31.9699 106.474 31.38 107.144 31.34C113.154 30.96 118.354 35.5299 118.734 41.5399L119.374 51.55C119.564 54.46 118.604 57.2699 116.674 59.4599C114.744 61.6499 112.084 62.9599 109.174 63.1399C109.154 63.1499 109.124 63.15 109.104 63.15ZM107.854 31.7199C107.624 31.7199 107.394 31.73 107.164 31.74C106.944 31.75 106.744 31.85 106.604 32.02C106.464 32.18 106.384 32.3899 106.404 32.6099L108.284 61.9699C108.314 62.4199 108.704 62.77 109.154 62.73C111.954 62.55 114.524 61.2899 116.374 59.1799C118.234 57.0699 119.154 54.37 118.974 51.56L118.334 41.55C118.154 38.75 116.894 36.18 114.784 34.33C112.854 32.64 110.414 31.7199 107.854 31.7199Z" fill="#F37B21"/>
<g opacity="0.35">
<path opacity="0.35" d="M118.874 46.8701L119.174 51.5701C119.554 57.4701 115.073 62.5701 109.163 62.9501C108.603 62.9901 108.113 62.5601 108.083 61.9901L107.583 54.1801C107.763 54.5301 108.133 54.7501 108.553 54.7301L109.253 54.6801C113.913 54.3901 117.694 51.1401 118.874 46.8701Z" fill="#371A45"/>
</g>
<path d="M10.2337 37.7401C10.7937 37.7001 11.2837 38.1301 11.3137 38.6901L13.1937 68.0501C13.2337 68.6101 12.8037 69.1001 12.2437 69.1301C6.33367 69.5101 1.24367 65.0301 0.863668 59.1201L0.223665 49.1201C-0.156335 43.2101 4.32367 38.1201 10.2337 37.7401Z" fill="#F37B21"/>
<path d="M11.5436 69.3701C8.89365 69.3701 6.35365 68.4201 4.34365 66.6501C2.15365 64.7201 0.843645 62.0601 0.663645 59.1501L0.023646 49.1401C-0.166354 46.2301 0.793643 43.4201 2.72364 41.2301C4.65364 39.0401 7.31364 37.7301 10.2236 37.5501C10.9036 37.5201 11.4836 38.0201 11.5236 38.6901L13.4036 68.0501C13.4236 68.3801 13.3136 68.6901 13.1036 68.9401C12.8836 69.1901 12.5936 69.3301 12.2636 69.3501C12.0136 69.3601 11.7836 69.3701 11.5436 69.3701ZM10.2436 37.9401C7.44364 38.1201 4.87365 39.3801 3.02365 41.4901C1.16365 43.6001 0.243644 46.3001 0.423644 49.1101L1.06364 59.1201C1.24364 61.9201 2.50365 64.4901 4.61365 66.3401C6.72365 68.1901 9.43365 69.1201 12.2336 68.9401C12.4536 68.9301 12.6536 68.8301 12.7936 68.6601C12.9336 68.5001 13.0136 68.2901 12.9936 68.0701L11.1136 38.7101C11.0836 38.2601 10.7036 37.9101 10.2436 37.9401Z" fill="#F37B21"/>
<g opacity="0.35">
<path opacity="0.35" d="M12.6735 59.9099L13.1935 68.0599C13.2335 68.6199 12.8035 69.1099 12.2335 69.1399C9.1335 69.3399 6.2535 68.1999 4.1635 66.2099C2.2735 64.4199 1.0335 61.9299 0.853497 59.1299L0.583496 54.9099C2.4935 58.4999 6.3935 60.8399 10.7235 60.5699L11.7935 60.4999C12.2035 60.4799 12.5235 60.2399 12.6735 59.9099Z" fill="#371A45"/>
</g>
<path d="M59.8437 102.71C88.1483 102.71 111.094 79.7645 111.094 51.46C111.094 23.1554 88.1483 0.209961 59.8437 0.209961C31.5392 0.209961 8.59375 23.1554 8.59375 51.46C8.59375 79.7645 31.5392 102.71 59.8437 102.71Z" fill="#F37B21"/>
<path d="M59.8539 102.91C59.7239 102.91 59.6039 102.91 59.4839 102.91C31.1139 102.71 8.19388 79.46 8.39388 51.09C8.59388 22.84 31.6439 0 59.8439 0C59.9739 0 60.0939 0 60.2139 0C73.9539 0.1 86.8439 5.54 96.4939 15.33C106.144 25.12 111.404 38.08 111.304 51.82C111.094 80.07 88.0539 102.91 59.8539 102.91ZM59.8339 0.41C46.3439 0.41 33.6339 5.62 24.0139 15.1C14.3039 24.67 8.90388 37.45 8.80388 51.08C8.70388 64.71 13.9239 77.57 23.4939 87.28C33.0639 96.99 45.8439 102.39 59.4739 102.49C73.0939 102.58 85.9639 97.37 95.6739 87.8C105.384 78.23 110.784 65.45 110.884 51.82C110.984 38.19 105.764 25.33 96.1939 15.62C86.6239 5.91 73.8439 0.51 60.2139 0.41C60.0839 0.41 59.9539 0.41 59.8339 0.41Z" fill="#F37B21"/>
<path d="M109.673 51.9901C109.753 61.8001 106.643 70.9401 101.253 78.5201C97.2134 84.2001 80.5034 94.2301 59.7834 94.5801C40.5634 94.9101 22.9934 84.8001 18.8634 79.1801C13.3534 71.6901 10.1034 62.6001 10.0234 52.7901C9.81345 26.8201 32.0334 15.8801 59.5534 15.6601C87.0734 15.4401 109.473 26.0201 109.673 51.9901Z" fill="#08171C"/>
<path d="M58.8536 95.7099C39.3836 95.7099 22.2036 85.6199 17.9536 79.8399C12.1036 71.8799 8.97356 62.5299 8.89356 52.7899C8.79356 40.1199 13.7936 30.2999 23.7636 23.6299C32.4736 17.7899 44.8536 14.6499 59.5536 14.5299C74.2536 14.4099 86.6736 17.3599 95.4836 23.0599C105.554 29.5799 110.714 39.3099 110.814 51.9799C110.894 61.7099 107.904 71.1199 102.184 79.1699C98.2136 84.7499 81.7136 95.3299 59.8036 95.6999C59.4836 95.7099 59.1636 95.7099 58.8536 95.7099ZM60.3036 16.7799C60.0536 16.7799 59.8036 16.7799 59.5636 16.7799C44.9236 16.8999 10.8936 20.6399 11.1536 52.7699C11.2236 62.0299 14.2136 70.9199 19.7736 78.4999C23.6636 83.7999 40.4136 93.4499 58.8736 93.4499C59.1736 93.4499 59.4636 93.4499 59.7636 93.4399C80.6036 93.0899 96.7136 82.9499 100.334 77.8599C105.784 70.1999 108.624 61.2499 108.544 51.9999C108.294 20.3999 75.3236 16.7799 60.3036 16.7799Z" fill="#08171C"/>
<path d="M91.1134 35.44C86.6234 31.5 81.7034 31.48 76.4934 32.46C76.6234 31.98 76.7134 31.65 76.6934 31.72C73.7034 32.84 70.6234 34.12 67.4634 35.1C66.2434 35.48 64.8134 35.15 63.4734 35.16C62.7934 35.17 62.1134 35.19 61.4334 35.24C57.9434 35.49 54.4034 36.23 50.9734 35.89C47.4434 35.54 44.0234 34.16 40.5334 32.76C40.8234 33.14 41.1134 33.53 41.5734 34.12C36.2534 33.85 31.2634 34.05 27.4734 38.27C26.9134 35.59 28.1834 32.43 30.8334 30.27C36.6834 25.5 42.7834 26.36 49.0734 29.56C48.5934 29.04 48.1134 28.52 47.6334 28C47.7834 27.75 47.7734 27.77 47.9234 27.51C49.6934 28 51.5634 28.29 53.2234 29.04C57.2034 30.84 60.9034 30.55 64.6334 28.36C66.1034 27.5 67.8234 27.05 69.4234 26.42C69.5934 26.65 69.5734 26.62 69.7434 26.85L68.1334 28.93C73.7834 25.09 79.6434 23.32 86.0034 27.11C88.9434 28.89 90.7434 31.49 91.1134 35.44Z" fill="#F37B21"/>
<path d="M70.7633 42.82L73.7333 42.6701C72.0333 41.6401 70.3633 40.63 68.8433 39.71C72.3933 40.04 75.9733 40.36 79.4433 40.68C79.4733 40.64 79.1933 41.03 78.9033 41.41C79.0633 41.64 79.3833 41.7 79.6133 41.54C81.1533 40.45 82.7033 39.35 84.1833 38.3C84.8433 40.51 84.2033 42.41 82.2133 43.72C79.2733 45.66 73.8233 45.26 70.7633 42.82Z" fill="#F37B21"/>
<path d="M34.2937 40.74C36.1237 41.81 37.8537 42.83 39.5937 43.85C39.7837 43.58 39.7437 43.21 39.5037 42.98C39.3037 42.78 39.1437 42.64 39.1237 42.61C42.4537 42.02 45.9937 41.4 49.3037 40.81C49.0037 41.09 48.3837 41.76 47.6737 42.31C46.9037 42.9 46.0537 43.39 44.7637 44.23C46.2637 44.06 47.2137 43.95 48.2237 43.83C46.0737 46.55 39.7637 47.54 36.9237 46.04C34.7837 44.89 33.8537 43.08 34.2937 40.74Z" fill="#F37B21"/>
<path d="M63.1935 72.63C63.1935 72.63 75.8735 69.67 83.2035 63.44C82.3635 61.43 80.9835 59.41 81.1535 59.92C79.5435 55.83 77.7435 54.96 76.8335 54.83C75.3235 56.49 73.9535 57.99 72.5835 59.49C72.2735 59.24 72.4035 59.34 72.0935 59.09C72.2835 58.82 72.4835 58.56 72.6735 58.29C75.9735 53.73 75.0935 48.83 70.3735 45.78C68.7635 44.74 67.1035 43.76 65.4035 42.85C63.4435 41.8 61.5335 42.52 60.6835 44.56C60.3335 45.39 60.0835 46.26 59.6335 47.56C59.1635 46.54 58.8735 45.92 58.5935 45.3C57.3535 42.56 55.4235 42.03 52.9535 43.78C51.6735 44.69 50.3835 45.58 49.1435 46.53C44.5235 50.06 43.9335 55.03 47.5835 59.59C48.0135 60.13 48.4735 60.66 48.9235 61.2C48.7435 61.4 48.7935 61.34 48.6235 61.53C47.0835 60.46 45.5535 59.38 43.9535 58.26C40.9835 62.63 39.5135 67.33 39.3535 72.37L39.7535 72.68C39.7635 72.69 51.2735 76.05 63.1935 72.63ZM70.4435 50.94C66.2035 55.87 63.8835 56.34 61.4935 52.7C64.5635 52.54 66.8935 49.58 70.4435 50.94ZM58.2435 52.86C56.3535 56.76 53.6535 56.45 49.2835 51.97C52.5635 50.24 55.1935 53 58.2435 52.86Z" fill="#F37B21"/>
<path d="M81.5036 69.78C74.4536 71.91 69.1736 72.97 64.7636 73.59C58.6336 75.02 51.7636 76.04 44.6836 76.05C44.4936 76.1 44.2936 76.14 44.0936 76.19C41.4636 76.95 42.0536 76.53 40.1636 77.6L50.8136 78.3C51.1336 78.32 51.1936 78.76 50.9036 78.87C49.2236 79.52 47.7136 80.11 46.0236 80.77C49.2036 84.4 52.6036 86.87 56.9636 87.68C62.8536 88.78 68.5136 87.76 73.8936 85.37C76.8236 84.07 80.1236 80.5 81.3336 77.54C82.9236 73.64 85.3736 68.61 81.5036 69.78Z" fill="#F37B21"/>
</svg>
