<svg width="24" height="24" viewBox="0 0 24 24" fill="none" xmlns="http://www.w3.org/2000/svg">
<circle cx="12" cy="12" r="12" fill="#090B0B"/>
<path d="M19.9848 7.54077C18.8219 6.53417 17.5477 6.52906 16.1983 6.77943C16.232 6.6568 16.2553 6.5725 16.2501 6.59038C15.4757 6.87652 14.678 7.20353 13.8596 7.4539C13.5436 7.55099 13.1733 7.46668 12.8262 7.46923C12.6501 7.47179 12.474 7.4769 12.2979 7.48967C11.394 7.55354 10.4772 7.74259 9.58881 7.65573C8.67456 7.56631 7.7888 7.21375 6.88492 6.85608C6.96003 6.95316 7.03513 7.0528 7.15427 7.20353C5.77643 7.13455 4.48405 7.18565 3.50247 8.26377C3.35743 7.57909 3.68635 6.77177 4.37268 6.21993C5.88779 5.0013 7.46765 5.22101 9.09672 6.03854C8.9724 5.90569 8.84809 5.77284 8.72377 5.63999C8.76262 5.57612 8.76003 5.58123 8.79888 5.51481C9.2573 5.63999 9.74161 5.71408 10.1715 5.90569C11.2023 6.36556 12.1606 6.29147 13.1267 5.73197C13.5074 5.51225 13.9528 5.39729 14.3672 5.23634C14.4113 5.2951 14.4061 5.28743 14.4501 5.34619L14.0331 5.87759C15.4964 4.89655 17.0141 4.44435 18.6613 5.41262C19.4228 5.86737 19.889 6.53162 19.9848 7.54077Z" fill="url(#paint0_linear_21_621)"/>
<path d="M14.7143 9.42619L15.4835 9.38787C15.0432 9.12473 14.6107 8.86669 14.217 8.63165C15.1365 8.71596 16.0637 8.79771 16.9624 8.87946C16.9701 8.86925 16.8976 8.96888 16.8225 9.06597C16.864 9.12473 16.9468 9.14005 17.0064 9.09918C17.4052 8.8207 17.8067 8.53968 18.19 8.27142C18.3609 8.83603 18.1952 9.32145 17.6798 9.65612C16.9183 10.1518 15.5068 10.0496 14.7143 9.42619Z" fill="url(#paint1_linear_21_621)"/>
<path d="M5.26883 8.89478C5.74279 9.16814 6.19085 9.42873 6.6415 9.68932C6.69071 9.62034 6.68035 9.52581 6.61819 9.46705C6.56639 9.41595 6.52495 9.38019 6.51977 9.37252C7.38222 9.22179 8.29905 9.06339 9.15632 8.91266C9.07862 8.98419 8.91805 9.15536 8.73416 9.29588C8.53474 9.44661 8.3146 9.5718 7.98049 9.7864C8.36898 9.74297 8.61503 9.71487 8.87661 9.68421C8.31978 10.3791 6.68553 10.632 5.94999 10.2488C5.39574 9.95502 5.15488 9.4926 5.26883 8.89478Z" fill="url(#paint2_linear_21_621)"/>
<path d="M12.7537 17.0421C12.7537 17.0421 16.0378 16.2859 17.9362 14.6943C17.7186 14.1808 17.3612 13.6647 17.4053 13.795C16.9883 12.7501 16.5221 12.5278 16.2864 12.4946C15.8953 12.9187 15.5405 13.3019 15.1857 13.6851C15.1054 13.6213 15.1391 13.6468 15.0588 13.5829C15.108 13.5139 15.1598 13.4475 15.209 13.3785C16.0637 12.2136 15.8358 10.9617 14.6133 10.1825C14.1963 9.91679 13.7664 9.66642 13.3261 9.43394C12.8185 9.16568 12.3238 9.34963 12.1037 9.87081C12.013 10.0829 11.9483 10.3051 11.8317 10.6372C11.71 10.3767 11.6349 10.2183 11.5624 10.0599C11.2412 9.35985 10.7414 9.22444 10.1017 9.67153C9.77014 9.90402 9.43604 10.1314 9.11489 10.3741C7.91834 11.2759 7.76554 12.5457 8.71086 13.7107C8.82223 13.8486 8.94136 13.984 9.05791 14.122C9.01129 14.1731 9.02424 14.1578 8.98021 14.2063C8.58136 13.9329 8.1851 13.657 7.77071 13.3709C7.0015 14.4873 6.62078 15.6881 6.57935 16.9757L6.68294 17.0549C6.68553 17.0575 9.66655 17.9159 12.7537 17.0421ZM14.6314 11.5008C13.5333 12.7603 12.9324 12.8804 12.3135 11.9504C13.1086 11.9095 13.712 11.1533 14.6314 11.5008ZM11.4717 11.9913C10.9822 12.9877 10.2829 12.9085 9.15115 11.7639C10.0006 11.3219 10.6818 12.0271 11.4717 11.9913Z" fill="url(#paint3_linear_21_621)"/>
<path d="M17.4956 16.3139C15.6697 16.8581 14.3022 17.1289 13.1601 17.2873C11.5724 17.6526 9.79314 17.9132 7.95947 17.9158C7.91026 17.9286 7.85846 17.9388 7.80666 17.9516C7.12551 18.1457 7.27832 18.0384 6.78882 18.3118L9.5471 18.4906C9.62997 18.4957 9.64552 18.6081 9.57041 18.6362C9.1353 18.8023 8.74422 18.953 8.30652 19.1216C9.13012 20.049 10.0107 20.6801 11.1399 20.887C12.6654 21.168 14.1313 20.9075 15.5247 20.2969C16.2835 19.9647 17.1382 19.0527 17.4516 18.2964C17.8634 17.3001 18.4979 16.015 17.4956 16.3139Z" fill="url(#paint4_linear_21_621)"/>
<defs>
<linearGradient id="paint0_linear_21_621" x1="3.46875" y1="4.875" x2="14.1641" y2="14.6394" gradientUnits="userSpaceOnUse">
<stop stop-color="#FD499D"/>
<stop offset="1" stop-color="#FF810A"/>
</linearGradient>
<linearGradient id="paint1_linear_21_621" x1="14.217" y1="8.27142" x2="18.2179" y2="10.053" gradientUnits="userSpaceOnUse">
<stop stop-color="#FD499D"/>
<stop offset="1" stop-color="#FF810A"/>
</linearGradient>
<linearGradient id="paint2_linear_21_621" x1="5.24121" y1="8.89478" x2="9.02387" y2="10.7045" gradientUnits="userSpaceOnUse">
<stop stop-color="#FD499D"/>
<stop offset="1" stop-color="#FF810A"/>
</linearGradient>
<linearGradient id="paint3_linear_21_621" x1="6.57935" y1="9.3114" x2="19.1981" y2="12.6162" gradientUnits="userSpaceOnUse">
<stop stop-color="#FD499D"/>
<stop offset="1" stop-color="#FF810A"/>
</linearGradient>
<linearGradient id="paint4_linear_21_621" x1="6.78882" y1="16.2699" x2="17.9293" y2="21.2301" gradientUnits="userSpaceOnUse">
<stop stop-color="#FD499D"/>
<stop offset="1" stop-color="#FF810A"/>
</linearGradient>
</defs>
</svg>
