<svg width="60" height="17" viewBox="0 0 99 17" fill="none" xmlns="http://www.w3.org/2000/svg">
<path d="M15.1945 11.5615C15.1945 12.0932 15.1267 12.5731 14.9909 13.0012C14.862 13.4224 14.689 13.7953 14.4718 14.1198C14.2547 14.4443 14.0002 14.7205 13.7084 14.9484C13.4166 15.1762 13.1147 15.3627 12.8025 15.5077C12.4904 15.6527 12.1714 15.7597 11.8457 15.8288C11.5268 15.8978 11.2248 15.9323 10.9398 15.9323H0.730543V13.2394H10.9398C11.4488 13.2394 11.8423 13.0875 12.1205 12.7837C12.4056 12.4799 12.5481 12.0725 12.5481 11.5615C12.5481 11.313 12.5107 11.0851 12.4361 10.878C12.3614 10.6708 12.2529 10.4913 12.1104 10.3394C11.9747 10.1875 11.805 10.0701 11.6014 9.98723C11.4046 9.90438 11.1841 9.86295 10.9398 9.86295H4.85293C4.42542 9.86295 3.96399 9.78699 3.46862 9.63509C2.97326 9.47627 2.51182 9.22425 2.08431 8.879C1.66359 8.53376 1.31073 8.08149 1.02573 7.52219C0.747508 6.9629 0.608398 6.27932 0.608398 5.47145C0.608398 4.66358 0.747508 3.98345 1.02573 3.43106C1.31073 2.87176 1.66359 2.41949 2.08431 2.07425C2.51182 1.7221 2.97326 1.47007 3.46862 1.31817C3.96399 1.15936 4.42542 1.07995 4.85293 1.07995H13.8611V3.77285H4.85293C4.35078 3.77285 3.9572 3.92821 3.6722 4.23893C3.39398 4.54965 3.25487 4.96049 3.25487 5.47145C3.25487 5.98931 3.39398 6.40015 3.6722 6.70397C3.9572 7.00088 4.35078 7.14933 4.85293 7.14933H10.9398H10.9602C11.2452 7.15624 11.5471 7.19767 11.8661 7.27362C12.185 7.34267 12.5006 7.45315 12.8127 7.60505C13.1316 7.75696 13.4336 7.9503 13.7186 8.18506C14.0036 8.41292 14.2547 8.68912 14.4718 9.01365C14.6958 9.33818 14.8722 9.71104 15.0011 10.1322C15.1301 10.5534 15.1945 11.0299 15.1945 11.5615Z" fill="#FFFAF5"/>
<path d="M32.7121 9.92509C32.7121 10.8296 32.5594 11.6617 32.2541 12.4212C31.9487 13.1807 31.5246 13.8367 30.9817 14.3891C30.4389 14.9415 29.7942 15.373 29.0478 15.6838C28.3081 15.9876 27.5006 16.1395 26.6252 16.1395H23.0423C22.167 16.1395 21.356 15.9876 20.6096 15.6838C19.8632 15.373 19.2185 14.9415 18.6756 14.3891C18.1328 13.8367 17.7053 13.1807 17.3931 12.4212C17.0878 11.6617 16.9351 10.8296 16.9351 9.92509V7.08719C16.9351 6.18955 17.0878 5.36097 17.3931 4.60143C17.7053 3.83499 18.1328 3.17903 18.6756 2.63354C19.2185 2.08116 19.8632 1.6496 20.6096 1.33888C21.356 1.02816 22.167 0.872803 23.0423 0.872803H26.6252C27.5006 0.872803 28.3081 1.02816 29.0478 1.33888C29.7942 1.6496 30.4389 2.08116 30.9817 2.63354C31.5246 3.17903 31.9487 3.83499 32.2541 4.60143C32.5594 5.36097 32.7121 6.18955 32.7121 7.08719V9.92509ZM30.0657 7.08719C30.0657 6.55551 29.9808 6.07562 29.8112 5.64752C29.6483 5.21252 29.4142 4.8431 29.1089 4.53929C28.8103 4.22857 28.4472 3.99035 28.0197 3.82464C27.599 3.65201 27.1342 3.5657 26.6252 3.5657H23.0423C22.5266 3.5657 22.055 3.65201 21.6275 3.82464C21.2068 3.99035 20.8437 4.22857 20.5384 4.53929C20.233 4.8431 19.9955 5.21252 19.8258 5.64752C19.663 6.07562 19.5816 6.55551 19.5816 7.08719V9.92509C19.5816 10.4568 19.663 10.9401 19.8258 11.3751C19.9955 11.8032 20.233 12.1726 20.5384 12.4833C20.8437 12.7872 21.2068 13.0254 21.6275 13.198C22.055 13.3637 22.5266 13.4466 23.0423 13.4466H26.6049C27.1206 13.4466 27.5888 13.3637 28.0096 13.198C28.4371 13.0254 28.8035 12.7872 29.1089 12.4833C29.4142 12.1726 29.6483 11.8032 29.8112 11.3751C29.9808 10.9401 30.0657 10.4568 30.0657 9.92509V7.08719Z" fill="#FFFAF5"/>
<path d="M48.7334 15.9323H36.6615C36.4715 15.9323 36.295 15.8978 36.1322 15.8288C35.9693 15.7597 35.8268 15.6665 35.7047 15.5491C35.5893 15.4248 35.4977 15.2798 35.4298 15.1141C35.362 14.9484 35.3281 14.7689 35.3281 14.5755V1.07995H37.9745V13.2394H48.7334V15.9323Z" fill="#FFFAF5"/>
<path d="M64.9991 15.9323H62.3526V12.2866H53.0492V15.9323H50.4028V8.50614C50.4028 7.42207 50.586 6.42432 50.9524 5.51288C51.3188 4.60143 51.8278 3.81773 52.4792 3.16177C53.1307 2.50581 53.9009 1.99484 54.7898 1.62889C55.6787 1.26293 56.6491 1.07995 57.7009 1.07995H63.6656C63.8489 1.07995 64.0219 1.11447 64.1848 1.18352C64.3476 1.25257 64.4901 1.34924 64.6123 1.47353C64.7344 1.59781 64.8294 1.74282 64.8973 1.90853C64.9651 2.07425 64.9991 2.25032 64.9991 2.43676V15.9323ZM53.0492 9.59366H62.3526V3.77285H57.7009C57.6195 3.77285 57.4464 3.78666 57.1818 3.81428C56.9239 3.83499 56.622 3.89368 56.2759 3.99035C55.9366 4.08702 55.577 4.23548 55.1969 4.43572C54.8169 4.63596 54.4675 4.91215 54.1485 5.2643C53.8296 5.61645 53.565 6.05836 53.3546 6.59004C53.151 7.11481 53.0492 7.75351 53.0492 8.50614V9.59366Z" fill="#FFFAF5"/>
<path d="M82.6286 7.29433C82.6286 7.90887 82.554 8.4578 82.4047 8.94115C82.2554 9.42449 82.0518 9.85259 81.794 10.2255C81.5429 10.5914 81.2511 10.9056 80.9186 11.168C80.5861 11.4304 80.2366 11.6444 79.8702 11.8101C79.5105 11.9758 79.1441 12.0967 78.7709 12.1726C78.4045 12.2486 78.0584 12.2866 77.7327 12.2866H71.7476V9.59366H77.7327C78.0719 9.56604 78.3773 9.49699 78.6487 9.38651C78.927 9.26913 79.1645 9.11377 79.3613 8.92043C79.558 8.72709 79.7107 8.49578 79.8193 8.22649C79.9279 7.9503 79.9822 7.63958 79.9822 7.29433V6.07217C79.9482 5.73383 79.877 5.42311 79.7684 5.14001C79.6598 4.85691 79.5105 4.61524 79.3205 4.415C79.1373 4.21476 78.9134 4.0594 78.6487 3.94892C78.3841 3.83154 78.0787 3.77285 77.7327 3.77285H71.7679C71.4151 3.77285 71.147 3.86607 70.9638 4.0525C70.7806 4.23893 70.689 4.50822 70.689 4.86037V15.9323H68.0425V4.86037C68.0425 4.16988 68.1646 3.58297 68.4089 3.09962C68.66 2.61628 68.9688 2.22616 69.3352 1.92925C69.7084 1.63234 70.1122 1.41829 70.5465 1.2871C70.9808 1.149 71.3811 1.07995 71.7476 1.07995H77.7327C78.3298 1.07995 78.8659 1.15936 79.3409 1.31817C79.8159 1.47007 80.2332 1.67722 80.5929 1.93961C80.9593 2.19509 81.2681 2.492 81.5191 2.83033C81.777 3.16867 81.9874 3.52427 82.1502 3.89714C82.3199 4.26309 82.442 4.63596 82.5167 5.01573C82.5913 5.38859 82.6286 5.74074 82.6286 6.07217V7.29433Z" fill="#FFFAF5"/>
<path d="M96.8992 9.86295H88.5425V7.14933H96.8992V9.86295ZM98.0901 15.9323H88.5425C88.176 15.9323 87.7757 15.8667 87.3414 15.7355C86.9071 15.6043 86.5033 15.3903 86.1301 15.0934C85.7637 14.7896 85.4549 14.3994 85.2038 13.923C84.9596 13.4397 84.8374 12.8493 84.8374 12.1519V2.43676C84.8374 2.25032 84.8713 2.07425 84.9392 1.90853C85.0071 1.74282 85.0987 1.59781 85.214 1.47353C85.3362 1.34924 85.4787 1.25257 85.6415 1.18352C85.8044 1.11447 85.9808 1.07995 86.1708 1.07995H98.0901V3.77285H87.4839V12.1519C87.4839 12.5041 87.5755 12.7734 87.7587 12.9598C87.9419 13.1462 88.21 13.2394 88.5628 13.2394H98.0901V15.9323Z" fill="#FFFAF5"/>
</svg>
