<svg width="270" height="794" viewBox="0 0 270 794" fill="none" xmlns="http://www.w3.org/2000/svg">
<path d="M214.085 568.249C211.639 570.695 208.39 571.411 206.828 569.849C205.266 568.287 205.982 565.038 208.428 562.592C210.874 560.146 218.142 557.121 218.849 557.828C219.556 558.536 216.531 565.803 214.085 568.249Z" fill="#093420"/>
<path d="M208 10H199V221.309H208V10Z" fill="#092A1A"/>
<path d="M208 437.691H199V644.5C199 646.986 201.015 649 203.5 649C205.985 649 208 646.986 208 644.5V437.691Z" fill="#092A1A"/>
<path d="M199 562L199 560.5L208 555L208 556.5L199 562Z" fill="#090B0B"/>
<path d="M199 543L199 541.5L208 536L208 537.5L199 543Z" fill="#090B0B"/>
<path d="M199 581L199 579.5L208 574L208 575.5L199 581Z" fill="#090B0B"/>
<path d="M199 600L199 598.5L208 593L208 594.5L199 600Z" fill="#090B0B"/>
<path d="M199 619L199 617.5L208 612L208 613.5L199 619Z" fill="#090B0B"/>
<path d="M199 638L199 636.5L208 631L208 632.5L199 638Z" fill="#090B0B"/>
<path d="M197.298 603.368C200.294 605.098 201.827 608.051 200.722 609.964C199.618 611.877 196.294 612.026 193.298 610.297C190.303 608.567 185.5 602.33 186 601.464C186.5 600.598 194.303 601.639 197.298 603.368Z" fill="#093420"/>
<path d="M199 51L199 49.5L208 44L208 45.5L199 51Z" fill="#090B0B"/>
<path d="M199 70L199 68.5L208 63L208 64.5L199 70Z" fill="#090B0B"/>
<path d="M199 89L199 87.5L208 82L208 83.5L199 89Z" fill="#090B0B"/>
<path d="M124.085 522.43C121.639 524.719 118.39 525.39 116.828 523.928C115.266 522.466 115.982 519.425 118.428 517.136C120.874 514.847 128.142 512.016 128.849 512.678C129.556 513.34 126.531 520.141 124.085 522.43Z" fill="#093420"/>
<path d="M118 0H109V197.751H118V0Z" fill="#092A1A"/>
<path d="M118 400.249H109V593.5C109 595.985 111.015 598 113.5 598C115.985 598 118 595.985 118 593.5V400.249Z" fill="#092A1A"/>
<path d="M109 516.582L109 515.178L118 510.031L118 511.435L109 516.582Z" fill="#090B0B"/>
<path d="M109 498.801L109 497.398L118 492.25L118 493.654L109 498.801Z" fill="#090B0B"/>
<path d="M109 534.363L109 532.959L118 527.812L118 529.216L109 534.363Z" fill="#090B0B"/>
<path d="M109 552.144L109 550.74L118 545.593L118 546.997L109 552.144Z" fill="#090B0B"/>
<path d="M109 569.925L109 568.521L118 563.374L118 564.778L109 569.925Z" fill="#090B0B"/>
<path d="M109 587.706L109 586.302L118 581.155L118 582.559L109 587.706Z" fill="#090B0B"/>
<path d="M122.49 574.277C120.224 576.819 117.181 577.673 115.694 576.186C114.206 574.698 114.837 571.432 117.103 568.89C119.368 566.348 126.155 563.02 126.828 563.693C127.502 564.367 124.755 571.735 122.49 574.277Z" fill="#093420"/>
<path d="M109 38.3692L109 36.9655L118 31.8184L118 33.2221L109 38.3692Z" fill="#090B0B"/>
<path d="M109 56.1505L109 54.7467L118 49.5996L118 51.0034L109 56.1505Z" fill="#090B0B"/>
<path d="M109 73.9312L109 72.5275L118 67.3804L118 68.7841L109 73.9312Z" fill="#090B0B"/>
<path d="M245.298 647.368C248.294 649.098 249.827 652.051 248.722 653.964C247.618 655.877 244.294 656.026 241.298 654.297C238.303 652.567 233.5 646.33 234 645.464C234.5 644.598 242.303 645.639 245.298 647.368Z" fill="#08AF5F"/>
<path d="M260.085 573.249C257.639 575.695 254.39 576.411 252.828 574.849C251.266 573.287 251.982 570.038 254.428 567.592C256.874 565.146 264.142 562.121 264.849 562.828C265.556 563.536 262.531 570.803 260.085 573.249Z" fill="#08AF5F"/>
<path d="M254 15H245V236.23H254V15Z" fill="#06894A"/>
<path d="M254 462.77H245V679.5C245 681.985 247.015 684 249.5 684C251.985 684 254 681.985 254 679.5V462.77Z" fill="#06894A"/>
<path d="M245 567L245 565.5L254 560L254 561.5L245 567Z" fill="#090B0B"/>
<path d="M245 548L245 546.5L254 541L254 542.5L245 548Z" fill="#090B0B"/>
<path d="M245 586L245 584.5L254 579L254 580.5L245 586Z" fill="#090B0B"/>
<path d="M245 605L245 603.5L254 598L254 599.5L245 605Z" fill="#090B0B"/>
<path d="M245 624L245 622.5L254 617L254 618.5L245 624Z" fill="#090B0B"/>
<path d="M245 643L245 641.5L254 636L254 637.5L245 643Z" fill="#090B0B"/>
<path d="M245 662L245 660.5L254 655L254 656.5L245 662Z" fill="#090B0B"/>
<path d="M245 677L245 675.5L254 670L254 671.5L245 677Z" fill="#090B0B"/>
<path d="M241.442 586.779C244.783 587.674 247.028 590.13 246.456 592.264C245.884 594.398 242.712 595.402 239.371 594.506C236.03 593.611 229.776 588.83 230.035 587.864C230.294 586.898 238.1 585.884 241.442 586.779Z" fill="#29F592"/>
<path d="M259.06 612.298C257.33 615.294 254.377 616.827 252.464 615.722C250.551 614.618 250.402 611.294 252.132 608.298C253.861 605.303 260.098 600.5 260.964 601C261.83 601.5 260.789 609.303 259.06 612.298Z" fill="#08AF5F"/>
<path d="M259.12 44.5063C255.779 45.4016 252.607 44.3975 252.035 42.2636C251.464 40.1298 253.709 37.6742 257.05 36.7789C260.391 35.8836 268.197 36.8978 268.456 37.8637C268.715 38.8296 262.462 43.611 259.12 44.5063Z" fill="#0AD171"/>
<path d="M240.225 541.911C243.519 540.855 246.736 541.706 247.41 543.809C248.084 545.913 245.96 548.474 242.665 549.529C239.371 550.585 231.525 549.948 231.22 548.995C230.915 548.043 236.931 542.966 240.225 541.911Z" fill="#29F592"/>
<path d="M245 37L245 35.5L254 30L254 31.5L245 37Z" fill="#090B0B"/>
<path d="M245 56L245 54.5L254 49L254 50.5L245 56Z" fill="#090B0B"/>
<path d="M245 75L245 73.5L254 68L254 69.5L245 75Z" fill="#090B0B"/>
<path d="M258.085 668.249C255.639 670.695 252.39 671.411 250.828 669.849C249.266 668.287 249.982 665.038 252.428 662.592C254.874 660.146 262.142 657.121 262.849 657.828C263.556 658.536 260.531 665.803 258.085 668.249Z" fill="#29F592"/>
<path d="M85.0853 76.2489C82.6394 78.6949 79.3902 79.4113 77.8281 77.8492C76.266 76.2871 76.9825 73.038 79.4284 70.5921C81.8743 68.1462 89.1418 65.1213 89.8489 65.8284C90.556 66.5355 87.5312 73.803 85.0853 76.2489Z" fill="#29F592"/>
<path d="M85.0853 576.249C82.6394 578.695 79.3902 579.411 77.8281 577.849C76.266 576.287 76.9825 573.038 79.4284 570.592C81.8743 568.146 89.1418 565.121 89.8489 565.828C90.556 566.536 87.5312 573.803 85.0853 576.249Z" fill="#08AF5F"/>
<path d="M86.0853 771.249C83.6394 773.695 80.3902 774.411 78.8281 772.849C77.266 771.287 77.9825 768.038 80.4284 765.592C82.8743 763.146 90.1418 760.121 90.8489 760.828C91.556 761.536 88.5312 768.803 86.0853 771.249Z" fill="#0AD171"/>
<path d="M61.3818 626.327L72.3947 615.093L75.4159 622.276L66.1335 633.437L61.3818 626.327Z" fill="#29F491" stroke="#13A95B" stroke-width="0.331512" stroke-linecap="round" stroke-linejoin="round"/>
<path d="M79 18H70V274.423H79V18Z" fill="#06894A"/>
<path d="M79 537H70V788.923C70 791.408 72.0147 793.423 74.5 793.423C76.9853 793.423 79 791.408 79 788.923V537Z" fill="#06894A"/>
<path d="M70 722L70 720.5L79 715L79 716.5L70 722Z" fill="#090B0B"/>
<path d="M15.8745 717.51C15.8745 717.51 11.2686 716.702 6.88605 718.543C6.88605 718.543 5.30142 719.243 5.08042 720.826C4.85941 722.408 8.32261 722.227 9.72159 722.079C11.1206 721.931 21.7997 724.488 24.1623 725.836C28.0299 728.046 29.4289 732.245 29.4289 732.245C29.4289 732.245 30.4964 731.102 29.9085 726.978C29.6786 725.372 27.8089 717.807 15.8745 717.51Z" fill="#FFE212" stroke="#C1A723" stroke-width="0.331512" stroke-miterlimit="10"/>
<path d="M6.46191 719.851C6.46191 719.851 11.6202 717.88 16.8493 718.691C22.0784 719.502 26.7593 722.742 29.0976 727.715" stroke="#C1A723" stroke-width="0.331512" stroke-miterlimit="10"/>
<path d="M6.42578 720.992C6.42578 720.992 24.0689 720.218 28.268 728.101" stroke="#C1A723" stroke-width="0.331512" stroke-miterlimit="10"/>
<path d="M79.363 718.379C78.6845 718.412 76.1318 719.104 75.7871 720.631C75.4423 722.158 79.374 720.224 79.0469 720.693C78.7198 721.162 75.5219 721.407 76.1738 722.914C76.8258 724.421 78.9652 722.059 79.4558 722.609C79.9464 723.159 76.1738 722.914 76.439 724.483C76.7042 726.052 79.374 725.367 82.309 724.158C85.244 722.949 82.8991 718.085 82.3289 717.515C81.7587 716.945 83.9334 710.571 83.9334 710.571L77.8734 711.676" fill="#FF800A"/>
<path d="M79.363 718.379C78.6845 718.412 76.1318 719.104 75.7871 720.631C75.4423 722.158 79.374 720.224 79.0469 720.693C78.7198 721.162 75.5219 721.407 76.1738 722.914C76.8258 724.421 78.9652 722.059 79.4558 722.609C79.9464 723.159 76.1738 722.914 76.439 724.483C76.7042 726.052 79.374 725.367 82.309 724.158C85.244 722.949 82.8991 718.085 82.3289 717.515C81.7587 716.945 83.9334 710.571 83.9334 710.571L77.8734 711.676" stroke="#6B3407" stroke-width="0.331512" stroke-linecap="round" stroke-linejoin="round"/>
<path d="M82.166 732.183C82.166 732.183 84.6214 733.262 84.5463 730.709C84.4711 728.157 82.6567 727.418 82.6567 727.418" fill="#FF800A"/>
<path d="M83.9145 714.649C83.373 709.641 96.7683 692.263 91.9548 684.894C87.1412 677.526 70.5413 680.156 56.0056 684.085C41.4699 688.015 77.1295 714.71 77.1295 714.71L83.9145 714.649Z" fill="#F5C828" stroke="#90751C" stroke-width="0.331512" stroke-miterlimit="10"/>
<path d="M84.5265 731.003C84.5265 731.003 85.804 730.758 86.0493 729.604C86.2946 728.45 84.2083 725.111 81.0899 724.521C77.9714 723.931 75.5647 722.211 72.6164 722.408C69.6682 722.605 71.5865 718.702 71.5865 718.702L64.7065 721.23C64.7065 721.23 64.9518 724.545 64.6822 725.405C64.4126 726.265 63.2081 727.222 64.3131 728.278C65.4182 729.334 69.7897 729.014 70.8439 728.596C71.8981 728.178 78.8267 728.033 79.1693 729.038C79.5119 730.044 79.3417 731.911 79.3417 731.911C79.3417 731.911 79.1936 733.655 81.0103 732.968C82.827 732.28 82.8292 730.07 82.1905 728.941" fill="#FF800A"/>
<path d="M84.5265 731.003C84.5265 731.003 85.804 730.758 86.0493 729.604C86.2946 728.45 84.2083 725.111 81.0899 724.521C77.9714 723.931 75.5647 722.211 72.6164 722.408C69.6682 722.605 71.5865 718.702 71.5865 718.702L64.7065 721.23C64.7065 721.23 64.9518 724.545 64.6822 725.405C64.4126 726.265 63.2081 727.222 64.3131 728.278C65.4182 729.334 69.7897 729.014 70.8439 728.596C71.8981 728.178 78.8267 728.033 79.1693 729.038C79.5119 730.044 79.3417 731.911 79.3417 731.911C79.3417 731.911 79.1936 733.655 81.0103 732.968C82.827 732.28 82.8292 730.07 82.1905 728.941" stroke="#6B3407" stroke-width="0.331512" stroke-linecap="round" stroke-linejoin="round"/>
<path d="M82.166 732.183C82.166 732.183 84.6214 733.262 84.5463 730.709C84.4711 728.157 82.6567 727.418 82.6567 727.418" stroke="#6B3407" stroke-width="0.331512" stroke-linecap="round" stroke-linejoin="round"/>
<path d="M37.8558 688.17C37.889 687.065 63.8862 681.981 76.2626 681.981C88.6391 681.981 91.3906 688.857 89.4259 693.671C87.4611 698.484 76.0659 716.156 75.0935 718.227C74.121 720.298 62.2264 724.022 62.1269 720.976C62.0275 717.931 65.3691 704.467 65.3691 704.467C65.3691 704.467 52.2059 713.504 47.6885 710.752C43.1711 708.001 37.5619 698.376 37.8558 688.17Z" fill="#F5C828" stroke="#90751C" stroke-width="0.331512" stroke-miterlimit="10"/>
<path d="M63.7142 623.971C63.7142 623.971 21.0862 665.963 20.6441 671.267C20.2021 676.571 23.1968 683.889 23.1968 683.889C24.9648 687.277 39.5514 710.359 44.1196 710.213C48.6879 710.067 69.8538 685.778 68.2427 680.77C66.6315 675.762 52.9202 654.322 54.3921 650.196C55.864 646.07 70.3047 628.44 70.3047 628.44" fill="#29F491"/>
<path d="M63.7142 623.971C63.7142 623.971 21.0862 665.963 20.6441 671.267C20.2021 676.571 23.1968 683.889 23.1968 683.889C24.9648 687.277 39.5514 710.359 44.1196 710.213C48.6879 710.067 69.8538 685.778 68.2427 680.77C66.6315 675.762 52.9202 654.322 54.3921 650.196C55.864 646.07 70.3047 628.44 70.3047 628.44" stroke="#13A95B" stroke-width="0.331512" stroke-linecap="round" stroke-linejoin="round"/>
<path d="M51.2467 638.951C51.2467 638.951 46.9061 630.212 41.0803 627.043C35.2545 623.874 29.0486 622.369 22.5841 625.094C16.1197 627.819 14.1328 621.297 14.1328 621.297C14.1328 621.297 14.8422 626.239 14.2212 626.678C13.6002 627.118 11.1845 626.256 9.23304 623.125C9.23304 623.125 10.2696 628.707 10.137 629.839C10.0044 630.97 9.06066 627.593 4.81288 630.665C0.565103 633.737 2.6028 632.99 2.6028 632.99C2.6028 632.99 5.89582 631.302 7.02296 632.582C8.1501 633.861 7.32132 635.481 5.76985 636.219C5.30547 636.433 4.79971 636.541 4.28859 636.537C3.77746 636.533 3.27356 636.416 2.81276 636.195C2.81276 636.195 4.84603 638.639 4.8836 641.101C4.92117 643.563 4.45485 643.747 4.37086 645.718C4.14986 651.564 6.24943 652.614 10.5812 659.803C14.913 666.993 15.3572 670.982 26.5623 670.332C37.7674 669.682 62.2087 664.451 51.2467 638.951Z" fill="#FF800A" stroke="#6B3407" stroke-width="0.331512" stroke-miterlimit="10"/>
<path d="M13.9163 655.593C13.9163 655.593 9.45415 652.267 4.32897 653.81C-0.796211 655.352 1.05584 657.984 2.91231 660.69C4.90138 663.6 14.7119 675.327 16.1131 666.789C17.5143 658.252 13.9163 655.593 13.9163 655.593Z" fill="#FFCA98" stroke="#6B3407" stroke-width="0.331512" stroke-miterlimit="10"/>
<path d="M4.56348 658.263C4.56348 658.263 9.8964 656.948 11.5098 658.84C13.1231 660.731 15.6028 664.939 13.0568 665.759C10.5108 666.579 5.91826 660.395 4.56348 658.263Z" fill="#FFE4CB" stroke="#C8A78C" stroke-width="0.331512" stroke-linecap="round" stroke-linejoin="round"/>
<path d="M42.7161 627.172C42.7161 627.172 37.6992 626.186 34.2537 629.218C30.8081 632.25 32.9276 633.417 31.3607 635.822C29.7937 638.226 24.2619 636.675 19.5964 640.45C14.9309 644.225 14.0513 647.423 16.9156 651.454C19.7798 655.485 25.4354 661.969 29.6744 659.89C33.9133 657.81 30.9407 659.288 32.8613 660.84C34.7819 662.391 44.1681 668.96 47.4478 668.493C50.7276 668.027 59.4729 659.638 58.6861 651.796C58.5828 650.699 58.3384 649.62 57.959 648.585C57.7645 648.057 56.3832 648.388 56.1511 647.946C55.8727 647.418 56.739 646.13 56.4473 645.683C55.6472 644.463 54.8671 643.473 54.5334 642.339C53.8062 639.829 56.1091 638.308 42.7161 627.172Z" fill="#FFCA98" stroke="#6B3407" stroke-width="0.331512" stroke-linecap="round" stroke-linejoin="round"/>
<path d="M45.9429 629.136C45.9429 629.136 50.6769 632.084 50.9443 633.19C51.2117 634.295 52.5842 637.468 48.8425 640.595C45.1008 643.723 41.6133 646.222 39.7326 644.812C37.8518 643.402 33.036 639.42 34.9389 637.135C36.8418 634.849 45.9429 629.136 45.9429 629.136Z" fill="white" stroke="#6B3407" stroke-width="0.331512" stroke-linecap="round" stroke-linejoin="round"/>
<path d="M35.0602 639.444C35.0602 639.444 37.3742 638.319 40.1434 642.003C42.9127 645.687 41.6043 647.343 40.5987 648.264C39.5931 649.186 34.1342 653.692 31.334 654.274C28.5339 654.855 23.0904 651.668 24.1469 648.412C26.2111 642.07 35.0602 639.444 35.0602 639.444Z" fill="white" stroke="#6B3407" stroke-width="0.331512" stroke-linecap="round" stroke-linejoin="round"/>
<path d="M43.6282 645.155C43.6282 645.155 45.6659 649.774 40.6711 653.089C35.6763 656.404 33.3535 655.215 33.3535 655.215" stroke="#6B3407" stroke-width="0.331512" stroke-linecap="round" stroke-linejoin="round"/>
<path d="M42.2626 641.126C42.78 641.86 43.5451 642.384 44.4174 642.6C46.4662 643.108 48.9437 640.896 49.2354 640.233C49.512 639.622 49.6248 638.95 49.5628 638.282C49.5008 637.614 49.2661 636.974 48.8818 636.425C47.6353 634.67 45.1445 634.301 43.3168 635.6C41.489 636.9 41.0161 639.373 42.2626 641.126Z" fill="#070707"/>
<path d="M47.4947 638.887C47.7116 638.733 47.7276 638.383 47.5304 638.105C47.3331 637.828 46.9974 637.728 46.7805 637.882C46.5635 638.036 46.5476 638.386 46.7448 638.663C46.942 638.941 47.2778 639.041 47.4947 638.887Z" fill="white"/>
<path d="M47.6047 639.877C47.8008 639.738 47.7883 639.384 47.577 639.086C47.3656 638.789 47.0353 638.66 46.8393 638.8C46.6433 638.939 46.6557 639.293 46.8671 639.59C47.0784 639.888 47.4087 640.016 47.6047 639.877Z" fill="white"/>
<path d="M44.7664 640.087C45.2471 639.746 45.4183 639.162 45.149 638.783C44.8797 638.403 44.2717 638.373 43.7911 638.714C43.3105 639.056 43.1392 639.64 43.4086 640.019C43.6779 640.398 44.2858 640.429 44.7664 640.087Z" fill="white"/>
<path d="M45.9815 637.213C46.3029 636.984 46.3881 636.552 46.1718 636.248C45.9555 635.943 45.5196 635.882 45.1982 636.11C44.8768 636.338 44.7916 636.77 45.0079 637.075C45.2242 637.379 45.6601 637.441 45.9815 637.213Z" fill="white"/>
<path d="M28.7024 650.795C29.2202 651.529 29.9853 652.052 30.8573 652.267C32.9038 652.775 35.3791 650.563 35.6708 649.902C35.9474 649.292 36.0603 648.62 35.9983 647.953C35.9363 647.285 35.7016 646.646 35.3172 646.096C34.0729 644.344 31.5822 643.975 29.7566 645.272C27.9311 646.569 27.4581 649.051 28.7024 650.795Z" fill="#070707"/>
<path d="M33.9283 648.557C34.1452 648.403 34.1612 648.053 33.9639 647.775C33.7667 647.498 33.431 647.397 33.2141 647.552C32.9971 647.706 32.9812 648.056 33.1784 648.333C33.3756 648.611 33.7113 648.711 33.9283 648.557Z" fill="white"/>
<path d="M34.0412 649.546C34.2373 649.407 34.2248 649.053 34.0135 648.755C33.8021 648.458 33.4719 648.329 33.2758 648.469C33.0798 648.608 33.0922 648.962 33.3036 649.259C33.515 649.557 33.8452 649.685 34.0412 649.546Z" fill="white"/>
<path d="M31.2039 649.755C31.6846 649.413 31.8558 648.829 31.5865 648.45C31.3172 648.071 30.7092 648.04 30.2286 648.382C29.748 648.723 29.5767 649.307 29.8461 649.686C30.1154 650.066 30.7233 650.096 31.2039 649.755Z" fill="white"/>
<path d="M32.418 646.883C32.7394 646.655 32.8246 646.223 32.6083 645.918C32.392 645.614 31.9561 645.552 31.6347 645.78C31.3133 646.009 31.2281 646.441 31.4444 646.745C31.6607 647.05 32.0966 647.111 32.418 646.883Z" fill="white"/>
<path d="M42.791 628.093C42.791 628.093 44.3381 629.516 45.8122 628.857C47.2863 628.199 48.9063 629.684 48.219 630.477C47.5317 631.271 38.3112 631.582 37.7056 639.207C37.5841 640.754 34.4502 637.052 34.4502 637.052" fill="#FFCA98"/>
<path d="M42.791 628.093C42.791 628.093 44.3381 629.516 45.8122 628.857C47.2863 628.199 48.9063 629.684 48.219 630.477C47.5317 631.271 38.3112 631.582 37.7056 639.207C37.5841 640.754 34.4502 637.052 34.4502 637.052" stroke="#6B3407" stroke-width="0.331512" stroke-linecap="round" stroke-linejoin="round"/>
<path d="M34.4281 636.591C34.4281 636.591 39.0692 639.42 37.6084 639.625C23.0218 641.663 25.9701 652.17 25.2562 652.481C24.5424 652.793 21.7422 648.777 21.7422 648.777" fill="#FFCA98"/>
<path d="M34.4281 636.591C34.4281 636.591 39.0692 639.42 37.6084 639.625C23.0218 641.663 25.9701 652.17 25.2562 652.481C24.5424 652.793 21.7422 648.777 21.7422 648.777" stroke="#6B3407" stroke-width="0.331512" stroke-linecap="round" stroke-linejoin="round"/>
<path d="M42.4002 645.559C42.4002 645.559 41.7748 645.338 41.7571 644.775C41.7394 644.211 41.4698 643.858 43.3749 642.193C46.1618 639.762 48.6548 638.436 50.5952 636.575C52.3522 634.896 51.1013 633.998 52.1423 635.057C52.1423 635.057 52.2705 635.075 52.2793 635.081C52.7184 635.551 52.9627 636.169 52.9627 636.812C52.9627 637.454 52.7184 638.073 52.2793 638.542C49.4937 641.524 46.1331 643.911 42.4002 645.559Z" fill="#FFCA98" stroke="#6B3407" stroke-width="0.331512" stroke-linecap="round" stroke-linejoin="round"/>
<path d="M33.1965 654.676C32.4363 654.969 31.6084 655.039 30.8096 654.879C30.0162 654.72 29.1587 654.503 29.3245 654.335C30.8848 652.755 27.6669 653.878 36.116 647.484C39.3273 645.053 41.0976 643.948 41.7164 644.611C42.3352 645.274 43.6502 645.197 41.4954 648.991C39.8577 651.829 35.3425 653.847 33.1965 654.676Z" fill="#FFCA98" stroke="#6B3407" stroke-width="0.331512" stroke-linecap="round" stroke-linejoin="round"/>
<path d="M47.5381 643.305C48.5144 643.213 49.4578 642.904 50.2985 642.399C51.819 641.528 54.2921 639.499 53.6556 638.476" stroke="#6B3407" stroke-width="0.331512" stroke-linecap="round" stroke-linejoin="round"/>
<path d="M48.8817 645.988C48.8817 645.988 50.7183 643.115 46.9479 642.825C43.1775 642.536 41.3056 647.482 42.0062 648.465C42.7068 649.449 44.3953 649.453 44.3953 649.453" fill="#FFCA98"/>
<path d="M48.8817 645.988C48.8817 645.988 50.7183 643.115 46.9479 642.825C43.1775 642.536 41.3056 647.482 42.0062 648.465C42.7068 649.449 44.3953 649.453 44.3953 649.453" stroke="#6B3407" stroke-width="0.331512" stroke-linecap="round" stroke-linejoin="round"/>
<path d="M47.8144 645.544C47.7809 646.013 47.6626 646.473 47.4652 646.901C47.1624 647.489 46.7314 646.22 46.9237 645.435C47.116 644.651 47.8144 645.544 47.8144 645.544Z" fill="#6B3407"/>
<path d="M44.5214 647.559C44.7733 647.517 45.7878 647.491 45.759 648.021C45.7303 648.552 44.6363 648.819 44.2672 648.434C43.8982 648.05 44.5214 647.559 44.5214 647.559Z" fill="#6B3407"/>
<path d="M20.5798 646.31C20.5798 646.31 20.3588 641.554 27.535 638.929" stroke="#6B3407" stroke-width="0.331512" stroke-linecap="round" stroke-linejoin="round"/>
<path d="M36.2113 634.306C36.2113 634.306 35.7251 630.57 40.2911 629.196" stroke="#6B3407" stroke-width="0.331512" stroke-linecap="round" stroke-linejoin="round"/>
<path d="M53.0219 649.077C53.0219 649.077 56.368 647.674 57.1282 648.708C57.2476 648.87 57.7758 648.772 57.9371 648.892C58.8079 649.542 60.0345 650.611 60.0345 650.611L48.4095 659.131L40.7648 659.489L35.8164 657.67L47.689 653.358L53.0219 649.077Z" fill="#6D3913" stroke="#B1570B" stroke-width="0.331512" stroke-linecap="round" stroke-linejoin="round"/>
<path d="M45.5267 658.815C45.5267 658.815 45.0339 657.52 46.8527 656.928C48.6716 656.336 53.483 654.758 54.4002 653.392C55.3174 652.026 53.7725 650.925 55.3947 650.561C57.0169 650.196 59.3088 650.7 59.3088 650.7L58.4535 653.352L51.1182 656.888L45.5267 658.815Z" fill="#FEFFFD" stroke="#D0D1CF" stroke-width="0.331512" stroke-linecap="round" stroke-linejoin="round"/>
<path d="M60.0652 649.911C61.1703 651.133 59.1016 653.482 57.1501 655.158C55.1986 656.833 51.689 659.156 46.3207 660.462C40.9524 661.768 34.4459 658.716 33.8846 657.936C33.3232 657.156 35.9378 656.649 38.3047 656.006C40.0971 655.518 41.779 654.8 43.3238 654.265C44.8687 653.73 53.4902 647.959 54.3499 647.336C55.2097 646.713 55.9987 644.925 56.2108 644.962C57.8043 645.252 57.1258 646.664 57.1258 646.664C57.1435 647.484 50.9376 652.03 47.4324 654.492C43.9272 656.954 37.5975 657.102 36.8527 657.586C36.1079 658.07 40.4353 658.722 41.4431 658.784C42.4509 658.846 46.8467 658.371 47.9098 657.96C48.9728 657.549 53.214 655.463 55.95 653.281C58.6861 651.1 58.0717 651.259 58.6353 650.214C58.6353 650.214 58.6729 649.637 57.5943 649.003C57.0317 648.692 56.4346 648.448 55.8152 648.275C55.8152 648.275 56.5578 646.05 60.0652 649.911Z" fill="#FF800A" stroke="#B1570B" stroke-width="0.331512" stroke-linecap="round" stroke-linejoin="round"/>
<path d="M23.7203 716.11C23.7667 716.361 25.0685 717.334 26.1359 720.337C27.2034 723.341 27.8289 724.382 25.9304 727.235C24.0319 730.088 20.9754 729.224 20.9202 727.494C20.8649 725.763 20.1157 727.158 19.351 727.198C15.7265 727.383 17.8039 724.921 16.942 724.472C16.0801 724.024 14.1816 725.381 13.4434 723.699C12.7053 722.017 12.8578 722.419 13.5407 720.479C14.2236 718.538 16.6459 715.243 16.6459 715.243L23.7203 716.11Z" fill="#FF800A" stroke="#6B3407" stroke-width="0.331512" stroke-linecap="round" stroke-linejoin="round"/>
<path d="M79.6534 605.994C79.6534 605.994 76.5836 607.395 76.0664 608.5C75.5493 609.605 76.2388 611.225 77.5163 610.735C78.7937 610.244 80.144 610.98 80.7319 609.261C81.3198 607.541 79.6534 605.994 79.6534 605.994Z" fill="#FF800A" stroke="#6B3407" stroke-width="0.331512" stroke-miterlimit="10"/>
<path d="M80.3405 611.077C80.3405 611.077 78.694 610.342 77.0497 611.201C75.4054 612.061 75.896 613.853 77.0983 614.099C78.3006 614.344 80.8068 615.252 81.3704 613.533C81.9339 611.813 80.3405 611.077 80.3405 611.077Z" fill="#FF800A" stroke="#6B3407" stroke-width="0.331512" stroke-miterlimit="10"/>
<path d="M79.8468 614.835C79.8468 614.835 78.3992 614.393 77.2698 614.59C76.1405 614.786 75.4266 616.333 77.0731 617.169C78.7196 618.004 80.2645 618.837 81.1485 617.562C82.0326 616.287 80.5606 614.91 79.8468 614.835Z" fill="#FF800A" stroke="#6B3407" stroke-width="0.331512" stroke-miterlimit="10"/>
<path d="M20.5046 671.893C20.3941 672.076 17.2624 678.375 17.2271 683.754C17.1917 689.133 12.2544 716.609 16.416 717.568C20.5776 718.528 25.5878 718.598 25.5878 717.31C25.5878 716.021 24.5933 681.469 28.3129 680.695" fill="#29F491"/>
<path d="M20.5046 671.893C20.3941 672.076 17.2624 678.375 17.2271 683.754C17.1917 689.133 12.2544 716.609 16.416 717.568C20.5776 718.528 25.5878 718.598 25.5878 717.31C25.5878 716.021 24.5933 681.469 28.3129 680.695" stroke="#13A95B" stroke-width="0.331512" stroke-linecap="round" stroke-linejoin="round"/>
<path d="M79.363 718.379C78.6845 718.412 76.1318 719.104 75.7871 720.631C75.4423 722.159 79.374 720.225 79.0469 720.693C78.7198 721.162 75.5219 721.407 76.1738 722.914C76.8258 724.422 78.9652 722.059 79.4558 722.609C79.9464 723.16 76.1738 722.914 76.439 724.484C76.7042 726.053 79.374 725.368 82.309 724.159C85.244 722.95 82.8991 718.085 82.3289 717.515" fill="#FF800A"/>
<path d="M79.363 718.379C78.6845 718.412 76.1318 719.104 75.7871 720.631C75.4423 722.159 79.374 720.225 79.0469 720.693C78.7198 721.162 75.5219 721.407 76.1738 722.914C76.8258 724.422 78.9652 722.059 79.4558 722.609C79.9464 723.16 76.1738 722.914 76.439 724.484C76.7042 726.053 79.374 725.368 82.309 724.159C85.244 722.95 82.8991 718.085 82.3289 717.515" stroke="#6B3407" stroke-width="0.331512" stroke-linecap="round" stroke-linejoin="round"/>
<path d="M65.3691 704.467C65.3691 704.467 66.3637 697.213 68.6843 695.521L65.3691 704.467Z" fill="#F5C828"/>
<path d="M65.3691 704.467C65.3691 704.467 66.3637 697.213 68.6843 695.521" stroke="#90751C" stroke-width="0.331512" stroke-miterlimit="10"/>
<path d="M28.3057 729.686L28.6173 733.644L30.6262 733.405L29.9986 729.41L28.3057 729.686Z" fill="#3D1D07" stroke="#C1A723" stroke-width="0.331512" stroke-miterlimit="10"/>
<path d="M70 570L70 568.5L79 563L79 564.5L70 570Z" fill="#090B0B"/>
<path d="M70 589L70 587.5L79 582L79 583.5L70 589Z" fill="#090B0B"/>
<path d="M70 608L70 606.5L79 601L79 602.5L70 608Z" fill="#090B0B"/>
<path d="M70 627L70 625.5L79 620L79 621.5L70 627Z" fill="#090B0B"/>
<path d="M70 646L70 644.5L79 639L79 640.5L70 646Z" fill="#090B0B"/>
<path d="M70 665L70 663.5L79 658L79 659.5L70 665Z" fill="#090B0B"/>
<path d="M70 680L70 678.5L79 673L79 674.5L70 680Z" fill="#090B0B"/>
<path d="M70 741L70 739.5L79 734L79 735.5L70 741Z" fill="#090B0B"/>
<path d="M70 760L70 758.5L79 753L79 754.5L70 760Z" fill="#090B0B"/>
<path d="M70 779L70 777.5L79 772L79 773.5L70 779Z" fill="#090B0B"/>
<path d="M66.4415 589.779C69.7827 590.674 72.0278 593.13 71.456 595.264C70.8842 597.398 67.7122 598.402 64.371 597.506C61.0298 596.611 54.7765 591.83 55.0353 590.864C55.2941 589.898 63.1004 588.884 66.4415 589.779Z" fill="#08AF5F"/>
<path d="M66.4415 752.779C69.7827 753.674 72.0278 756.13 71.456 758.264C70.8842 760.398 67.7122 761.402 64.371 760.506C61.0298 759.611 54.7765 754.83 55.0353 753.864C55.2941 752.898 63.1004 751.884 66.4415 752.779Z" fill="#08AF5F"/>
<path d="M67.4415 39.779C70.7827 40.6743 73.0278 43.1299 72.456 45.2638C71.8842 47.3976 68.7122 48.4017 65.371 47.5064C62.0298 46.6112 55.7765 41.8298 56.0353 40.8638C56.2941 39.8979 64.1004 38.8838 67.4415 39.779Z" fill="#0AD171"/>
<path d="M65.2251 544.911C68.5192 543.855 71.736 544.706 72.4099 546.809C73.0838 548.913 70.9597 551.474 67.6655 552.529C64.3713 553.585 56.5253 552.948 56.2202 551.995C55.9152 551.043 61.9309 545.966 65.2251 544.911Z" fill="#29F592"/>
<path d="M70 40L70 38.5L79 33L79 34.5L70 40Z" fill="#090B0B"/>
<path d="M70 59L70 57.5L79 52L79 53.5L70 59Z" fill="#090B0B"/>
<path d="M70 78L70 76.5L79 71L79 72.5L70 78Z" fill="#090B0B"/>
</svg>
